# xmcd CD database file
#
# Track frame offsets:
#	150
#	5423
#	50550
#	94183
#	135700
#	175803
#	213203
#	251523
#	286980
#
# Disc length: 4280 seconds
#
# Revision: 0
# Processed by: cddbd v1.4PL0 Copyright (c) Steve Scherf et al.
# Submitted via: CDex 1.50beta10
#
DISCID=7910b609
DTITLE=Shirley Scott - Queen Of The Organ
DYEAR=1900
DGENRE=Jazz
TTITLE0=Just In Time
TTITLE1=Squeeze Me (But Don't Tease Me)
TTITLE2=Mean, Angry, Nasty And Lowndown (Scott)
TTITLE3=Can't Buy Me Love
TTITLE4=Like Blue
TTITLE5=Cute
TTITLE6=Rapid Shave
TTITLE7=That's For Me
TTITLE8=The Theme
EXTD=
EXTT0=
EXTT1=
EXTT2=
EXTT3=
EXTT4=
EXTT5=
EXTT6=
EXTT7=
EXTT8=
PLAYORDER=
